ffmpeg started on 2016-11-27 at 08:43:47
Report written to "Output/NVENCh264/results/ffmpeg/old_town_cross_2160p50llhq6000k.log"
Command line:
Tools/ffmpeg/ffmpeg -benchmark -y -i Input/y4m/old_town_cross_2160p50.y4m -c:v h264_nvenc -preset llhq -b:v 6000k -an Output/NVENCh264/encoded/old_town_cross_2160p50llhq6000k.mkv
ffmpeg version N-82227-gdb23fde Copyright (c) 2000-2016 the FFmpeg developers
  built with gcc 5.4.0 (Ubuntu 5.4.0-6ubuntu1~16.04.2) 20160609
  configuration: --prefix=/home/jaroslav/ffmpeg_build --pkg-config-flags=--static --extra-cflags=-I/home/jaroslav/ffmpeg_build/include --extra-ldflags=-L/home/jaroslav/ffmpeg_build/lib --bindir=/home/jaroslav/bin --enable-gpl --enable-libass --enable-libfdk-aac --enable-libfreetype --enable-libmp3lame --enable-libopus --enable-libtheora --enable-libvorbis --enable-libvpx --enable-libx264 --enable-libx265 --enable-nvenc --enable-libmfx --enable-libxvid --enable-libgsm --enable-libopencore-amrnb --enable-version3 --enable-nonfree
  libavutil      55. 35.100 / 55. 35.100
  libavcodec     57. 66.101 / 57. 66.101
  libavformat    57. 57.100 / 57. 57.100
  libavdevice    57.  2.100 / 57.  2.100
  libavfilter     6. 66.100 /  6. 66.100
  libswscale      4.  3.100 /  4.  3.100
  libswresample   2.  4.100 /  2.  4.100
  libpostproc    54.  2.100 / 54.  2.100
Input #0, yuv4mpegpipe, from 'Input/y4m/old_town_cross_2160p50.y4m':
  Duration: 00:00:10.00, start: 0.000000, bitrate: 4976642 kb/s
    Stream #0:0: Video: rawvideo (I420 / 0x30323449), yuv420p(progressive), 3840x2160, SAR 1:1 DAR 16:9, 50 fps, 50 tbr, 50 tbn, 50 tbc
[h264_nvenc @ 0x44fb120] The variable bitrate rate-control requires the 'qmin' and/or 'qmax' option set.
Output #0, matroska, to 'Output/NVENCh264/encoded/old_town_cross_2160p50llhq6000k.mkv':
  Metadata:
    encoder         : Lavf57.57.100
    Stream #0:0: Video: h264 (h264_nvenc) (Main) (H264 / 0x34363248), yuv420p, 3840x2160 [SAR 1:1 DAR 16:9], q=-1--1, 6000 kb/s, 50 fps, 1k tbn, 50 tbc
    Metadata:
      encoder         : Lavc57.66.101 h264_nvenc
    Side data:
      cpb: bitrate max/min/avg: 0/0/6000000 buffer size: 12000000 vbv_delay: -1
Stream mapping:
  Stream #0:0 -> #0:0 (rawvideo (native) -> h264 (h264_nvenc))
Press [q] to stop, [?] for help
frame=   20 fps=0.0 q=0.0 size=       0kB time=00:00:00.00 bitrate=N/A speed=   0x    frame=   31 fps= 28 q=40.0 size=       1kB time=00:00:00.00 bitrate=5976.0kbits/s speed=0.000917x    frame=   49 fps= 30 q=36.0 size=       1kB time=00:00:00.36 bitrate=  16.6kbits/s speed=0.225x    frame=   67 fps= 32 q=36.0 size=       1kB time=00:00:00.72 bitrate=   8.3kbits/s speed=0.34x    frame=   85 fps= 32 q=34.0 size=       1kB time=00:00:01.08 bitrate=   5.5kbits/s speed=0.41x    frame=  103 fps= 33 q=35.0 size=       1kB time=00:00:01.44 bitrate=   4.1kbits/s speed=0.457x    frame=  121 fps= 33 q=34.0 size=       1kB time=00:00:01.80 bitrate=   3.3kbits/s speed=0.491x    frame=  139 fps= 33 q=33.0 size=       1kB time=00:00:02.16 bitrate=   2.8kbits/s speed=0.517x    frame=  157 fps= 33 q=33.0 size=       1kB time=00:00:02.52 bitrate=   2.4kbits/s speed=0.537x    frame=  175 fps= 34 q=36.0 size=       1kB time=00:00:02.88 bitrate=   2.1kbits/s speed=0.553x    frame=  193 fps= 34 q=34.0 size=       1kB time=00:00:03.24 bitrate=   1.8kbits/s speed=0.566x    frame=  211 fps= 34 q=36.0 size=       1kB time=00:00:03.60 bitrate=   1.7kbits/s speed=0.578x    frame=  229 fps= 34 q=34.0 size=       1kB time=00:00:03.96 bitrate=   1.5kbits/s speed=0.587x    frame=  247 fps= 34 q=33.0 size=       1kB time=00:00:04.32 bitrate=   1.4kbits/s speed=0.595x    frame=  265 fps= 34 q=33.0 size=       1kB time=00:00:04.68 bitrate=   1.3kbits/s speed=0.602x    frame=  283 fps= 34 q=34.0 size=    3518kB time=00:00:05.04 bitrate=5717.8kbits/s speed=0.608x    frame=  301 fps= 34 q=38.0 size=    3518kB time=00:00:05.40 bitrate=5336.7kbits/s speed=0.613x    frame=  319 fps= 34 q=37.0 size=    3518kB time=00:00:05.76 bitrate=5003.2kbits/s speed=0.618x    frame=  337 fps= 34 q=38.0 size=    3518kB time=00:00:06.12 bitrate=4709.0kbits/s speed=0.623x    frame=  355 fps= 34 q=34.0 size=    3518kB time=00:00:06.48 bitrate=4447.4kbits/s speed=0.627x    frame=  373 fps= 34 q=34.0 size=    3518kB time=00:00:06.84 bitrate=4213.3kbits/s speed=0.629x    frame=  391 fps= 34 q=34.0 size=    3518kB time=00:00:07.20 bitrate=4002.7kbits/s speed=0.633x    frame=  409 fps= 34 q=34.0 size=    3518kB time=00:00:07.56 bitrate=3812.1kbits/s speed=0.636x    frame=  427 fps= 34 q=34.0 size=    3518kB time=00:00:07.92 bitrate=3638.9kbits/s speed=0.638x    frame=  445 fps= 34 q=33.0 size=    3518kB time=00:00:08.28 bitrate=3480.7kbits/s speed=0.641x    frame=  463 fps= 34 q=34.0 size=    3518kB time=00:00:08.64 bitrate=3335.7kbits/s speed=0.643x    frame=  481 fps= 34 q=36.0 size=    3518kB time=00:00:09.00 bitrate=3202.3kbits/s speed=0.645x    frame=  499 fps= 35 q=34.0 size=    3518kB time=00:00:09.36 bitrate=3079.1kbits/s speed=0.647x    frame=  500 fps= 34 q=34.0 Lsize=    7186kB time=00:00:09.98 bitrate=5897.7kbits/s speed=0.686x    
video:7181kB audio:0kB subtitle:0kB other streams:0kB global headers:0kB muxing overhead: 0.060391%
bench: utime=1.140s
bench: maxrss=1408816kB
